# xmcd CD database file
#
# Track frame offsets:
#	150
#	16135
#	31240
#	46727
#	58320
#	77472
#	91370
#	101615
#	115105
#	127457
#	143835
#	155562
#
# Disc length: 2269 seconds
#
# Revision: 2
# Processed by: cddbd v1.4PL0 Copyright (c) Steve Scherf et al.
# Submitted via: CDex 1.50
#
DISCID=9908db0c
DTITLE=Wylie and The Wild West - Way Out West
DYEAR=1997
DGENRE=Country
TTITLE0=Hello Heartache
TTITLE1=Jingle, Jangle, Jingle
TTITLE2=Heaven
TTITLE3=Rain, Rain
TTITLE4=Sidewalks Of L.A.
TTITLE5=Girl On The Billboard
TTITLE6=Give Me A Pinto Pal
TTITLE7=I Remember You
TTITLE8=I'm Your Man
TTITLE9=Heartaches, Tears and Misery
TTITLE10=Fill It Up
TTITLE11=I Still Get A Thrill
EXTD=YEAR: 1997
EXTT0=
EXTT1=
EXTT2=
EXTT3=
EXTT4=
EXTT5=
EXTT6=
EXTT7=
EXTT8=
EXTT9=
EXTT10=
EXTT11=
PLAYORDER=
